<svg xmlns="http://www.w3.org/2000/svg" width="1600" height="1990" viewBox="0 0 1600 1990" role="img" aria-labelledby="title description">
<title id="title">共同故事来源，展开实体与视听两条制作线</title>
<desc id="description">准确故事剧本、故事集、故事场及正文共同支撑实体、实体关系、实体状态与视听设计，两条线连接共用素材需求、方案版本、真实执行和多个候选。</desc>
<defs><marker id="arrow" markerWidth="8" markerHeight="8" refX="7" refY="4" orient="auto"><path d="M0,0 L8,4 L0,8 Z" fill="#71869b"/></marker><marker id="green" markerWidth="8" markerHeight="8" refX="7" refY="4" orient="auto"><path d="M0,0 L8,4 L0,8 Z" fill="#348269"/></marker></defs>
<style>text{font-family:"PingFang SC","Microsoft YaHei","Noto Sans CJK SC",sans-serif}path{stroke-linejoin:round;stroke-linecap:round}</style>
<rect width="1600" height="1990" fill="#fbfcfe"/>
<text x="40" y="62" font-size="34" fill="#19314b" font-weight="650" text-anchor="start">共同故事来源，展开实体与视听两条制作线</text>
<text x="40" y="104" font-size="22" fill="#52667b" font-weight="400" text-anchor="start">故事依据、对象归属与制作需要分别表达；两条线共用素材需求，终点为多个镜头候选。</text>
<rect x="40" y="140" width="1520" height="112" rx="16" fill="#edf5ff" stroke="#99b8d9" stroke-width="1.7"/>
<text x="62" y="180" font-size="26" fill="#19314b" font-weight="650" text-anchor="start">项目与创作依据</text>
<text x="62" y="219" font-size="21" fill="#52667b" font-weight="400" text-anchor="start">作品身份与配置 · 创作资料与方向 · 故事结构与小说 · 制作思路与规格</text>
<path d="M800,254 L800,289" fill="none" stroke="#71869b" stroke-width="2.5" marker-end="url(#arrow)"/>
<text x="827" y="279" font-size="18" fill="#52667b" font-weight="400" text-anchor="start">准确创作依据</text>
<rect x="40" y="300" width="1520" height="220" rx="16" fill="#edf5ff" stroke="#99b8d9" stroke-width="1.7"/>
<text x="62" y="340" font-size="28" fill="#19314b" font-weight="650" text-anchor="start">共同故事来源：以下两条线都从同一份准确故事出发</text>
<rect x="64" y="366" width="330" height="94" rx="16" fill="#ffffff" stroke="#afc4da" stroke-width="1.7"/>
<text x="84" y="404" font-size="25" fill="#19314b" font-weight="650" text-anchor="start">故事剧本</text>
<text x="84" y="438" font-size="20" fill="#52667b" font-weight="400" text-anchor="start">准确版本、全剧故事设定</text>
<rect x="444" y="366" width="330" height="94" rx="16" fill="#ffffff" stroke="#afc4da" stroke-width="1.7"/>
<text x="464" y="404" font-size="25" fill="#19314b" font-weight="650" text-anchor="start">故事集</text>
<text x="464" y="438" font-size="20" fill="#52667b" font-weight="400" text-anchor="start">本集内容与场次</text>
<rect x="824" y="366" width="330" height="94" rx="16" fill="#ffffff" stroke="#afc4da" stroke-width="1.7"/>
<text x="844" y="404" font-size="25" fill="#19314b" font-weight="650" text-anchor="start">故事场</text>
<text x="844" y="438" font-size="20" fill="#52667b" font-weight="400" text-anchor="start">时空、行动与对白</text>
<rect x="1204" y="366" width="330" height="94" rx="16" fill="#ffffff" stroke="#afc4da" stroke-width="1.7"/>
<text x="1224" y="404" font-size="25" fill="#19314b" font-weight="650" text-anchor="start">正文块</text>
<text x="1224" y="438" font-size="20" fill="#52667b" font-weight="400" text-anchor="start">实际引用的准确范围</text>
<path d="M396,413 L433,413" fill="none" stroke="#71869b" stroke-width="2.5" marker-end="url(#arrow)"/>
<path d="M776,413 L813,413" fill="none" stroke="#71869b" stroke-width="2.5" marker-end="url(#arrow)"/>
<path d="M1156,413 L1193,413" fill="none" stroke="#71869b" stroke-width="2.5" marker-end="url(#arrow)"/>
<text x="64" y="494" font-size="21" fill="#52667b" font-weight="400" text-anchor="start">剧级、集级、场内及跨场依据按实际记录；故事来源、出现位置和适用范围分别保存。</text>
<path d="M408,522 L408,595" fill="none" stroke="#71869b" stroke-width="2.5" marker-end="url(#arrow)"/>
<path d="M1192,522 L1192,595" fill="none" stroke="#71869b" stroke-width="2.5" marker-end="url(#arrow)"/>
<text x="64" y="558" font-size="21" fill="#19314b" font-weight="650" text-anchor="start">故事依据</text>
<text x="850" y="558" font-size="21" fill="#19314b" font-weight="650" text-anchor="start">故事依据</text>
<text x="64" y="587" font-size="20" fill="#52667b" font-weight="400" text-anchor="start">识别对象、关系与需要维持的形态</text>
<text x="850" y="587" font-size="20" fill="#52667b" font-weight="400" text-anchor="start">设计观众需要看见、听见的内容</text>
<rect x="40" y="608" width="736" height="442" rx="16" fill="#edf8f2" stroke="#91bca8" stroke-width="1.7"/>
<rect x="824" y="608" width="736" height="442" rx="16" fill="#f2eefb" stroke="#b4a0d7" stroke-width="1.7"/>
<text x="64" y="652" font-size="29" fill="#19314b" font-weight="650" text-anchor="start">实体梳理</text>
<text x="64" y="682" font-size="20" fill="#52667b" font-weight="400" text-anchor="start">同一实体可跨集场复用；每项内容保留自己的故事依据</text>
<rect x="64" y="706" width="688" height="88" rx="16" fill="#ffffff" stroke="#a9c7b8" stroke-width="1.7"/>
<text x="84" y="741" font-size="25" fill="#19314b" font-weight="650" text-anchor="start">实体</text>
<text x="84" y="775" font-size="20" fill="#52667b" font-weight="400" text-anchor="start">角色 · 场景空间 · 道具 · 歌曲等稳定对象</text>
<path d="M225,796 L225,835" fill="none" stroke="#71869b" stroke-width="2.5" marker-end="url(#arrow)"/>
<path d="M591,796 L591,835" fill="none" stroke="#71869b" stroke-width="2.5" marker-end="url(#arrow)"/>
<text x="244" y="824" font-size="17" fill="#52667b" font-weight="400" text-anchor="start">一个实体可有多个状态</text>
<text x="610" y="824" font-size="17" fill="#52667b" font-weight="400" text-anchor="start">关系端点引用实体</text>
<rect x="64" y="846" width="322" height="102" rx="16" fill="#ffffff" stroke="#a9c7b8" stroke-width="1.7"/>
<text x="84" y="884" font-size="24" fill="#19314b" font-weight="650" text-anchor="start">实体状态</text>
<text x="84" y="920" font-size="18" fill="#52667b" font-weight="400" text-anchor="start">外貌、衣着、布局等整体形态</text>
<rect x="430" y="846" width="322" height="102" rx="16" fill="#ffffff" stroke="#a9c7b8" stroke-width="1.7"/>
<text x="450" y="884" font-size="24" fill="#19314b" font-weight="650" text-anchor="start">实体关系</text>
<text x="450" y="920" font-size="18" fill="#52667b" font-weight="400" text-anchor="start">人物、归属、使用、空间关系</text>
<text x="64" y="986" font-size="21" fill="#52667b" font-weight="400" text-anchor="start">出现／提及 · 状态转换 · 制作设定</text>
<text x="64" y="1020" font-size="20" fill="#52667b" font-weight="400" text-anchor="start">状态与关系分别引用准确故事来源和适用范围</text>
<text x="848" y="652" font-size="29" fill="#19314b" font-weight="650" text-anchor="start">视听设计</text>
<text x="848" y="682" font-size="20" fill="#52667b" font-weight="400" text-anchor="start">同一故事的表达安排；保留准确正文来源与编排版本</text>
<rect x="848" y="706" width="688" height="88" rx="16" fill="#ffffff" stroke="#c6b8dc" stroke-width="1.7"/>
<text x="870" y="742" font-size="25" fill="#19314b" font-weight="650" text-anchor="start">视听集</text>
<text x="870" y="776" font-size="20" fill="#52667b" font-weight="400" text-anchor="start">整集表达目标、视听场划分与顺序</text>
<rect x="848" y="817" width="688" height="88" rx="16" fill="#ffffff" stroke="#c6b8dc" stroke-width="1.7"/>
<text x="870" y="853" font-size="25" fill="#19314b" font-weight="650" text-anchor="start">视听场</text>
<text x="870" y="887" font-size="20" fill="#52667b" font-weight="400" text-anchor="start">段落目的、拆镜理由与镜头编排</text>
<rect x="848" y="928" width="688" height="88" rx="16" fill="#ffffff" stroke="#c6b8dc" stroke-width="1.7"/>
<text x="870" y="964" font-size="25" fill="#19314b" font-weight="650" text-anchor="start">视听镜头</text>
<text x="870" y="998" font-size="20" fill="#52667b" font-weight="400" text-anchor="start">单镜画面、动作、声音、时长与承接</text>
<path d="M1192,796 L1192,807" fill="none" stroke="#71869b" stroke-width="2.5" marker-end="url(#arrow)"/>
<path d="M1192,907 L1192,918" fill="none" stroke="#71869b" stroke-width="2.5" marker-end="url(#arrow)"/>
<path d="M408,1052 L408,1167" fill="none" stroke="#348269" stroke-width="2.5" marker-end="url(#green)"/>
<path d="M1192,1052 L1192,1167" fill="none" stroke="#348269" stroke-width="2.5" marker-end="url(#green)"/>
<text x="435" y="1090" font-size="18" fill="#52667b" font-weight="400" text-anchor="start">明确对象／状态、关系约束</text>
<text x="435" y="1120" font-size="18" fill="#52667b" font-weight="400" text-anchor="start">与实际制作需要</text>
<text x="855" y="1090" font-size="18" fill="#52667b" font-weight="400" text-anchor="start">明确表达目标、产物要求</text>
<text x="855" y="1120" font-size="18" fill="#52667b" font-weight="400" text-anchor="start">与使用范围</text>
<rect x="360" y="1180" width="880" height="146" rx="16" fill="#edf8f2" stroke="#91bca8" stroke-width="1.7"/>
<text x="382" y="1222" font-size="27" fill="#19314b" font-weight="650" text-anchor="start">共用素材需求：一镜可有多项，一项也可多处使用</text>
<text x="382" y="1257" font-size="21" fill="#52667b" font-weight="400" text-anchor="start">定妆 · 空间全景／机位 · 道具细节 · 镜头首帧／视频 · 声音</text>
<text x="382" y="1287" font-size="21" fill="#52667b" font-weight="400" text-anchor="start">每项保存用途、要求、主归属、故事依据及准确使用范围</text>
<rect x="40" y="1180" width="280" height="146" rx="16" fill="#fff7e8" stroke="#d8b76d" stroke-width="1.7"/>
<text x="62" y="1222" font-size="26" fill="#19314b" font-weight="650" text-anchor="start">需求关系</text>
<text x="62" y="1257" font-size="19" fill="#52667b" font-weight="400" text-anchor="start">端点 · 语境 · 用途</text>
<text x="62" y="1287" font-size="19" fill="#52667b" font-weight="400" text-anchor="start">必要性 · 条件 · 版本</text>
<path d="M360,1252 L324,1252" fill="none" stroke="#348269" stroke-width="2.5" marker-end="url(#green)"/>
<rect x="1280" y="1180" width="280" height="146" rx="16" fill="#f3f5f8" stroke="#aab8c5" stroke-width="1.7"/>
<text x="1302" y="1222" font-size="25" fill="#19314b" font-weight="650" text-anchor="start">多个阅读入口</text>
<text x="1302" y="1257" font-size="19" fill="#52667b" font-weight="400" text-anchor="start">故事／实体／视听</text>
<text x="1302" y="1287" font-size="19" fill="#52667b" font-weight="400" text-anchor="start">引用同一需求身份</text>
<path d="M1280,1252 L1247,1252" fill="none" stroke="#348269" stroke-width="2.5" marker-end="url(#green)"/>
<path d="M800,1328 L800,1360 L280,1360 L280,1404" fill="none" stroke="#71869b" stroke-width="2.5" marker-end="url(#arrow)"/>
<rect x="40" y="1416" width="480" height="150" rx="16" fill="#edf5ff" stroke="#99b8d9" stroke-width="1.7"/>
<text x="62" y="1458" font-size="27" fill="#19314b" font-weight="650" text-anchor="start">素材方案版本</text>
<text x="62" y="1493" font-size="21" fill="#52667b" font-weight="400" text-anchor="start">完整需求与输出 · 方法与参数</text>
<text x="62" y="1523" font-size="21" fill="#52667b" font-weight="400" text-anchor="start">准确参考选择 · 检查项 · 冻结依据</text>
<rect x="560" y="1416" width="480" height="150" rx="16" fill="#edf5ff" stroke="#99b8d9" stroke-width="1.7"/>
<text x="582" y="1458" font-size="27" fill="#19314b" font-weight="650" text-anchor="start">实际执行／调用</text>
<text x="582" y="1493" font-size="21" fill="#52667b" font-weight="400" text-anchor="start">真实输入 · 工具／模型 · 状态</text>
<text x="582" y="1523" font-size="21" fill="#52667b" font-weight="400" text-anchor="start">回执 · 用量 · 真实输出</text>
<rect x="1080" y="1416" width="480" height="150" rx="16" fill="#edf8f2" stroke="#91bca8" stroke-width="1.7"/>
<text x="1102" y="1458" font-size="27" fill="#19314b" font-weight="650" text-anchor="start">多个素材候选</text>
<text x="1102" y="1493" font-size="21" fill="#52667b" font-weight="400" text-anchor="start">每个结果的生产来源与适用范围</text>
<text x="1102" y="1523" font-size="21" fill="#52667b" font-weight="400" text-anchor="start">原件／预览等组成 · 实测信息</text>
<path d="M522,1490 L552,1490" fill="none" stroke="#71869b" stroke-width="2.5" marker-end="url(#arrow)"/>
<path d="M1042,1490 L1072,1490" fill="none" stroke="#71869b" stroke-width="2.5" marker-end="url(#arrow)"/>
<text x="535" y="1393" font-size="17" fill="#52667b" font-weight="400" text-anchor="middle">0..多次</text>
<text x="1055" y="1393" font-size="17" fill="#52667b" font-weight="400" text-anchor="middle">0..多个</text>
<rect x="40" y="1600" width="1520" height="150" rx="16" fill="#fff7e8" stroke="#d8b76d" stroke-width="1.7"/>
<text x="62" y="1642" font-size="27" fill="#19314b" font-weight="650" text-anchor="start">准确追溯与审阅贯穿全程</text>
<text x="62" y="1678" font-size="22" fill="#52667b" font-weight="400" text-anchor="start">故事依据 → 实体／关系／状态或视听设计 → 素材用途 → 方案、实际输入及原件</text>
<text x="62" y="1714" font-size="22" fill="#52667b" font-weight="400" text-anchor="start">对象身份与修订 · 评论与意见回应 · 审阅决定与采用 · 沿准确依赖检查变更影响</text>
<rect x="40" y="1782" width="1520" height="120" rx="16" fill="#edf8f2" stroke="#91bca8" stroke-width="1.7"/>
<text x="62" y="1825" font-size="28" fill="#19314b" font-weight="650" text-anchor="start">本轮终点：多个镜头候选及原件，可预览、比较和反馈</text>
<text x="62" y="1862" font-size="22" fill="#52667b" font-weight="400" text-anchor="start">故事依据不自动产生媒体义务；是否需要独立素材，由明确的制作目的与范围决定。</text>
<text x="40" y="1943" font-size="19" fill="#52667b" font-weight="400" text-anchor="start">概念讨论图，整合已有能力与扩展建议；不是当前数据库结构或已经执行生成的记录。</text>
</svg>
