<svg xmlns="http://www.w3.org/2000/svg" width="1240" height="825" viewBox="0 0 1240 825"><defs><marker id="arrow" markerWidth="9" markerHeight="9" refX="8" refY="4.5" orient="auto"><path d="M0,0 L9,4.5 L0,9" fill="#47726a"/></marker></defs><rect width="1240" height="825" fill="#f8f3e8"/><text x="45" y="58" font-family="PingFang SC,Noto Sans CJK SC,Microsoft YaHei,sans-serif" font-size="32" fill="#203c37">亲近关系有来处</text><text x="45" y="94" font-family="PingFang SC,Noto Sans CJK SC,Microsoft YaHei,sans-serif" font-size="20" fill="#68695f">三个父辈是故交；李绡、孙六各自承担职责。</text><rect x="445" y="125" width="340" height="120" rx="12" fill="#e5ece3" stroke="#95aaa0"/><text x="463" y="160" font-family="PingFang SC,Noto Sans CJK SC,Microsoft YaHei,sans-serif" font-size="26" fill="#2a403c">阿蘅父亲 · 已故</text><text x="463" y="192" font-family="PingFang SC,Noto Sans CJK SC,Microsoft YaHei,sans-serif" font-size="21" fill="#2a403c">与李诞、孙六多年深交</text><rect x="45" y="295" width="310" height="120" rx="12" fill="#e5ece3" stroke="#95aaa0"/><text x="63" y="330" font-family="PingFang SC,Noto Sans CJK SC,Microsoft YaHei,sans-serif" font-size="26" fill="#2a403c">李诞</text><text x="63" y="362" font-family="PingFang SC,Noto Sans CJK SC,Microsoft YaHei,sans-serif" font-size="21" fill="#2a403c">父亲；主动承担除蛇</text><rect x="875" y="295" width="310" height="120" rx="12" fill="#e5ece3" stroke="#95aaa0"/><text x="893" y="330" font-family="PingFang SC,Noto Sans CJK SC,Microsoft YaHei,sans-serif" font-size="26" fill="#2a403c">孙六叔</text><text x="893" y="362" font-family="PingFang SC,Noto Sans CJK SC,Microsoft YaHei,sans-serif" font-size="21" fill="#2a403c">故交；鼓手与搭台人</text><rect x="445" y="295" width="340" height="120" rx="12" fill="#e5ece3" stroke="#95aaa0"/><text x="463" y="330" font-family="PingFang SC,Noto Sans CJK SC,Microsoft YaHei,sans-serif" font-size="26" fill="#2a403c">两位母亲</text><text x="463" y="362" font-family="PingFang SC,Noto Sans CJK SC,Microsoft YaHei,sans-serif" font-size="21" fill="#2a403c">照顾病人、做饭、守家</text><rect x="235" y="495" width="300" height="120" rx="12" fill="#e5ece3" stroke="#95aaa0"/><text x="253" y="530" font-family="PingFang SC,Noto Sans CJK SC,Microsoft YaHei,sans-serif" font-size="26" fill="#2a403c">李寄</text><text x="253" y="562" font-family="PingFang SC,Noto Sans CJK SC,Microsoft YaHei,sans-serif" font-size="21" fill="#2a403c">阿蘅自小亲近的朋友</text><rect x="690" y="495" width="300" height="120" rx="12" fill="#e5ece3" stroke="#95aaa0"/><text x="708" y="530" font-family="PingFang SC,Noto Sans CJK SC,Microsoft YaHei,sans-serif" font-size="26" fill="#2a403c">阿蘅</text><text x="708" y="562" font-family="PingFang SC,Noto Sans CJK SC,Microsoft YaHei,sans-serif" font-size="21" fill="#2a403c">有自己的生计与意愿</text><rect x="465" y="690" width="310" height="105" rx="12" fill="#e5ece3" stroke="#95aaa0"/><text x="483" y="725" font-family="PingFang SC,Noto Sans CJK SC,Microsoft YaHei,sans-serif" font-size="26" fill="#2a403c">李绡 · 李寄五姐</text><text x="483" y="757" font-family="PingFang SC,Noto Sans CJK SC,Microsoft YaHei,sans-serif" font-size="21" fill="#2a403c">带戏班；组织工具与人手</text><path d="M480,245 L205,290" stroke="#47726a" stroke-width="3" fill="none" marker-end="url(#arrow)"/><path d="M750,245 L1020,290" stroke="#47726a" stroke-width="3" fill="none" marker-end="url(#arrow)"/><path d="M200,415 L335,490" stroke="#47726a" stroke-width="3" fill="none" marker-end="url(#arrow)"/><path d="M1040,415 L855,490" stroke="#47726a" stroke-width="3" fill="none" marker-end="url(#arrow)"/><path d="M535,555 L685,555" stroke="#47726a" stroke-width="3" fill="none" marker-end="url(#arrow)"/><path d="M535,720 L430,620" stroke="#47726a" stroke-width="3" fill="none" marker-end="url(#arrow)"/><path d="M710,690 L820,620" stroke="#47726a" stroke-width="3" fill="none" marker-end="url(#arrow)"/><text x="485" y="465" font-family="PingFang SC,Noto Sans CJK SC,Microsoft YaHei,sans-serif" font-size="20" fill="#2a403c">照护与日常往来</text><text x="550" y="535" font-family="PingFang SC,Noto Sans CJK SC,Microsoft YaHei,sans-serif" font-size="20" fill="#2a403c">旧友 · 互助</text></svg>